<svg xmlns="http://www.w3.org/2000/svg" viewBox="0 0 1200 800" role="img" aria-labelledby="t d"><title id="t">Aria science lane sigil</title><desc id="d">Green observatory-lab sigil for the Aria science lane of Universal Balance Theory.</desc><defs><radialGradient id="bg" cx="50%" cy="45%" r="72%"><stop offset="0" stop-color="#183a28"/><stop offset="0.48" stop-color="#07140d"/><stop offset="1" stop-color="#020704"/></radialGradient><filter id="glow"><feGaussianBlur stdDeviation="9" result="b"/><feMerge><feMergeNode in="b"/><feMergeNode in="SourceGraphic"/></feMerge></filter></defs><rect width="1200" height="800" fill="url(#bg)"/><g opacity=".12" stroke="#77f2a1" stroke-width="1"><path d="M0 120H1200M0 240H1200M0 360H1200M0 480H1200M0 600H1200M120 0V800M240 0V800M360 0V800M480 0V800M600 0V800M720 0V800M840 0V800M960 0V800M1080 0V800"/></g><g transform="translate(600 380)" filter="url(#glow)"><circle r="210" fill="none" stroke="#77f2a1" stroke-opacity=".24" stroke-width="3"/><circle r="150" fill="none" stroke="#c9a84c" stroke-opacity=".20" stroke-dasharray="8 15" stroke-width="2"/><path d="M0 -210 L182 105 L-182 105 Z" fill="rgba(119,242,161,.04)" stroke="#77f2a1" stroke-opacity=".78" stroke-width="5"/><path d="M-210 82 C-90 -50 88 -50 210 82" fill="none" stroke="#61d6ff" stroke-opacity=".5" stroke-width="4"/><path d="M-160 105 H160 M-92 105 L0 -48 L92 105" stroke="#dfffea" stroke-opacity=".55" stroke-width="3" fill="none"/><circle cx="0" cy="0" r="52" fill="#77f2a1" opacity=".16"/><circle cx="0" cy="0" r="16" fill="#77f2a1"/></g><text x="600" y="690" text-anchor="middle" font-family="Georgia,serif" font-size="52" fill="#e9fff0" letter-spacing="8">ARIA</text><text x="600" y="735" text-anchor="middle" font-family="system-ui,sans-serif" font-size="22" fill="#8bd9a7" letter-spacing="5">METHOD · TEST · RECORD</text></svg>