<svg xmlns="http://www.w3.org/2000/svg" viewBox="0 0 1200 800" role="img" aria-labelledby="t d"><title id="t">Shadow challenge lane sigil</title><desc id="d">Red ember proving-ground sigil for the Shadow challenge lane of Universal Balance Theory.</desc><defs><radialGradient id="bg" cx="50%" cy="35%" r="76%"><stop offset="0" stop-color="#3d1212"/><stop offset="0.52" stop-color="#100609"/><stop offset="1" stop-color="#050204"/></radialGradient><filter id="glow"><feGaussianBlur stdDeviation="10" result="b"/><feMerge><feMergeNode in="b"/><feMergeNode in="SourceGraphic"/></feMerge></filter></defs><rect width="1200" height="800" fill="url(#bg)"/><g opacity=".18" stroke="#ff626d" stroke-width="2"><path d="M160 650 C360 520 500 690 650 540 S920 420 1060 560" fill="none"/><path d="M120 190 C300 270 430 120 620 220 S920 300 1080 170" fill="none"/></g><g transform="translate(600 380)" filter="url(#glow)"><circle r="212" fill="none" stroke="#ff626d" stroke-opacity=".23" stroke-width="3"/><circle r="154" fill="none" stroke="#c9a84c" stroke-opacity=".18" stroke-dasharray="16 12" stroke-width="2"/><path d="M0 -210 L182 105 L-182 105 Z" fill="rgba(255,98,109,.04)" stroke="#ff626d" stroke-opacity=".80" stroke-width="5"/><path d="M-145 105 L0 -146 L145 105" fill="none" stroke="#ffd1d4" stroke-opacity=".38" stroke-width="2"/><path d="M-70 82 C-30 10 8 4 0 -82 C48 -32 86 28 70 82 C52 148 -52 148 -70 82Z" fill="#ff626d" opacity=".48"/><circle r="12" fill="#f2c76a"/></g><text x="600" y="690" text-anchor="middle" font-family="Georgia,serif" font-size="52" fill="#fff0ee" letter-spacing="8">SHADOW</text><text x="600" y="735" text-anchor="middle" font-family="system-ui,sans-serif" font-size="22" fill="#e79590" letter-spacing="5">CONTROL · FAILURE · TRUTH</text></svg>